<svg width="20" height="20" viewBox="0 0 20 20" fill="none" xmlns="http://www.w3.org/2000/svg">
<path d="M17 1H3C2.46957 1 1.96086 1.21074 1.58578 1.58582C1.21071 1.96089 1 2.46957 1 3V17C1 17.5304 1.21071 18.0391 1.58578 18.4142C1.96086 18.7893 2.46957 19 3 19H17C17.5304 19 18.0391 18.7893 18.4142 18.4142C18.7893 18.0391 19 17.5304 19 17V3C19 2.46957 18.7893 1.96089 18.4142 1.58582C18.0391 1.21074 17.5304 1 17 1Z" stroke="#2BAE68" stroke-width="2" stroke-linecap="round" stroke-linejoin="round"/>
<path d="M6.5 8.00002C6.79667 8.00002 7.08667 7.91204 7.33334 7.74721C7.58002 7.58239 7.7723 7.34809 7.88583 7.074C7.99937 6.79991 8.02907 6.49839 7.97119 6.20742C7.91331 5.91645 7.77045 5.64913 7.56067 5.43935C7.35089 5.22957 7.0836 5.08671 6.79263 5.02883C6.50166 4.97095 6.20005 5.00063 5.92596 5.11416C5.65188 5.22769 5.41763 5.41997 5.25281 5.66665C5.08799 5.91332 5 6.20335 5 6.50002C5 6.89785 5.15803 7.27939 5.43933 7.56069C5.72064 7.842 6.10218 8.00002 6.5 8.00002Z" stroke="#2BAE68" stroke-width="2" stroke-linecap="round" stroke-linejoin="round"/>
<path d="M18 18V12L14 8L3 19" fill="#2BAE68"/>
<path d="M18 18V12L14 8L3 19" stroke="#2BAE68" stroke-width="2" stroke-linecap="round" stroke-linejoin="round"/>
</svg>
