<svg width="20" height="24" viewBox="0 0 20 24" fill="none" xmlns="http://www.w3.org/2000/svg">
<path d="M19 10C19 17 10 23 10 23C10 23 1 17 1 10C1 7.61305 1.94822 5.32381 3.63605 3.63599C5.32387 1.94816 7.61305 1 10 1C12.3869 1 14.6761 1.94816 16.364 3.63599C18.0518 5.32381 19 7.61305 19 10Z" fill="#2BAE68" stroke="#2BAE68" stroke-width="2" stroke-linecap="round" stroke-linejoin="round"/>
<path d="M10 13C10.5933 13 11.1733 12.8241 11.6667 12.4944C12.16 12.1648 12.5446 11.6962 12.7717 11.148C12.9987 10.5998 13.0581 9.99678 12.9424 9.41484C12.8266 8.8329 12.5409 8.29826 12.1213 7.87871C11.7018 7.45915 11.1672 7.17342 10.5853 7.05766C10.0033 6.94191 9.40011 7.00125 8.85193 7.22832C8.30375 7.45538 7.83526 7.83995 7.50562 8.3333C7.17597 8.82664 7 9.4067 7 10C7 10.7957 7.31605 11.5588 7.87866 12.1214C8.44127 12.684 9.20435 13 10 13Z" fill="#E1FAF2" stroke="#E1FAF2" stroke-width="2" stroke-linecap="round" stroke-linejoin="round"/>
</svg>
