<svg width="22" height="22" viewBox="0 0 22 22" fill="none" xmlns="http://www.w3.org/2000/svg">
<path d="M11 21C12.9778 21 14.9112 20.4135 16.5557 19.3147C18.2002 18.2159 19.4819 16.6542 20.2388 14.8269C20.9956 12.9996 21.1937 10.9889 20.8079 9.04907C20.422 7.10926 19.4696 5.32748 18.071 3.92896C16.6725 2.53043 14.8907 1.57799 12.9509 1.19214C11.0111 0.806291 9.00042 1.00436 7.17316 1.76123C5.34589 2.51811 3.78412 3.79985 2.6853 5.44434C1.58649 7.08883 1 9.02219 1 11C1 13.6522 2.05359 16.1957 3.92895 18.071C5.80432 19.9464 8.34783 21 11 21Z" fill="#2BAE68" stroke="#2BAE68" stroke-width="2" stroke-linecap="round" stroke-linejoin="round"/>
<path d="M7 13C7.46574 13.621 8.06964 14.125 8.76392 14.4722C9.45819 14.8193 10.2238 15 11 15C11.7762 15 12.5418 14.8193 13.2361 14.4722C13.9304 14.125 14.5343 13.621 15 13" stroke="#E9FAF4" stroke-width="2" stroke-linecap="round" stroke-linejoin="round"/>
<path d="M8 8H8.01001" stroke="#E9FAF4" stroke-width="2" stroke-linecap="round" stroke-linejoin="round"/>
<path d="M14 8H14.01" stroke="#E9FAF4" stroke-width="2" stroke-linecap="round" stroke-linejoin="round"/>
</svg>
