<svg width="18" height="20" viewBox="0 0 18 20" fill="none" xmlns="http://www.w3.org/2000/svg">
<path d="M17 19V17C17 15.9391 16.5786 14.9218 15.8284 14.1716C15.0783 13.4215 14.0609 13 13 13H5C3.93913 13 2.92172 13.4215 2.17157 14.1716C1.42142 14.9218 1 15.9391 1 17V19" fill="#2BAE68"/>
<path d="M17 19V17C17 15.9391 16.5786 14.9218 15.8284 14.1716C15.0783 13.4215 14.0609 13 13 13H5C3.93913 13 2.92172 13.4215 2.17157 14.1716C1.42142 14.9218 1 15.9391 1 17V19" stroke="#2BAE68" stroke-width="2" stroke-linecap="round" stroke-linejoin="round"/>
<path d="M9 8.99998C9.79113 8.99998 10.5645 8.76543 11.2223 8.32591C11.8801 7.88638 12.3928 7.26164 12.6955 6.53074C12.9983 5.79984 13.0775 4.99563 12.9231 4.2197C12.7688 3.44378 12.3878 2.73102 11.8284 2.17161C11.269 1.6122 10.5563 1.23122 9.78036 1.07688C9.00444 0.922541 8.20017 1.00167 7.46927 1.30442C6.73836 1.60717 6.11366 2.12001 5.67413 2.77781C5.23461 3.43561 5 4.20885 5 4.99998C5 6.06084 5.42142 7.0782 6.17157 7.82835C6.92172 8.57849 7.93913 8.99998 9 8.99998Z" fill="#2BAE68" stroke="#2BAE68" stroke-width="2" stroke-linecap="round" stroke-linejoin="round"/>
<rect y="18" width="18" height="2" rx="1" fill="#2BAE68"/>
</svg>
