<svg width="38" height="39" viewBox="0 0 38 39" fill="none" xmlns="http://www.w3.org/2000/svg">
<path d="M37.3177 18.6523C37.6469 18.2716 37.8155 17.778 37.7879 17.2754C37.7603 16.7729 37.5387 16.3007 37.1697 15.9583L20.2807 0.516321C19.9014 0.178161 19.4094 -0.00595895 18.9013 0.000147151C18.3932 0.00625326 17.9058 0.202133 17.5347 0.549311L0.58769 16.7813C0.226697 17.1309 0.0162085 17.6074 0.000897572 18.1097C-0.0144134 18.6119 0.166659 19.1004 0.505689 19.4713L0.930707 19.9333C1.08427 20.1138 1.27195 20.2623 1.48301 20.3701C1.69408 20.4779 1.92438 20.543 2.16066 20.5615C2.39693 20.5801 2.63455 20.5519 2.85988 20.4784C3.0852 20.4049 3.29381 20.2876 3.47371 20.1333L4.7407 18.9483V36.2983C4.73526 36.5459 4.77863 36.7921 4.86836 37.0229C4.95809 37.2537 5.09244 37.4645 5.26368 37.6434C5.43493 37.8222 5.63971 37.9656 5.86638 38.0653C6.09304 38.165 6.33714 38.219 6.5847 38.2243H13.1907C13.6905 38.2133 14.1654 38.0042 14.5111 37.643C14.8567 37.2818 15.0447 36.7981 15.0337 36.2983V24.1643H23.4597V36.3023C23.4409 36.5438 23.4713 36.7865 23.5492 37.0158C23.627 37.2451 23.7506 37.4562 23.9125 37.6363C24.0744 37.8164 24.2711 37.9617 24.4908 38.0635C24.7106 38.1652 24.9486 38.2213 25.1907 38.2283H32.1907C32.6907 38.217 33.1657 38.0077 33.5115 37.6464C33.8572 37.2851 34.0454 36.8013 34.0347 36.3013V19.2013L34.8157 19.9183C35.2457 20.3133 36.1507 19.9963 36.8357 19.2083L37.3177 18.6523Z" fill="#2BAE68"/>
</svg>
