<svg width="42" height="42" viewBox="0 0 42 42" fill="none" xmlns="http://www.w3.org/2000/svg">
<path d="M21 41C32.0457 41 41 32.0457 41 21C41 9.9543 32.0457 1 21 1C9.9543 1 1 9.9543 1 21C1 32.0457 9.9543 41 21 41Z" fill="white"/>
<path d="M20.9999 39.9831C31.4839 39.9831 39.9829 31.4841 39.9829 21C39.9829 10.516 31.4839 2.01697 20.9999 2.01697C10.5158 2.01697 2.01685 10.516 2.01685 21C2.01685 31.4841 10.5158 39.9831 20.9999 39.9831Z" stroke="#707070" stroke-width="3"/>
<path d="M26.6497 17.4973C26.6497 15.9989 26.0545 14.5618 24.9949 13.5023C23.9354 12.4427 22.4984 11.8475 21 11.8475C19.5016 11.8475 18.0645 12.4427 17.005 13.5023C15.9455 14.5618 15.3502 15.9989 15.3502 17.4973C15.3502 24.0886 12.5254 25.9718 12.5254 25.9718H29.4745C29.4745 25.9718 26.6497 24.0886 26.6497 17.4973Z" stroke="#707070" stroke-width="3" stroke-linecap="round" stroke-linejoin="round"/>
<path d="M22.6291 29.7383C22.4636 30.0237 22.226 30.2605 21.9401 30.4252C21.6542 30.5899 21.33 30.6765 21.0001 30.6765C20.6702 30.6765 20.346 30.5899 20.0602 30.4252C19.7743 30.2605 19.5366 30.0237 19.3711 29.7383" stroke="#707070" stroke-width="3" stroke-linecap="round" stroke-linejoin="round"/>
</svg>
