<svg width="38" height="38" viewBox="0 0 38 38" fill="none" xmlns="http://www.w3.org/2000/svg">
<circle cx="19" cy="19" r="17.5" fill="white" stroke="#2BAE68" stroke-width="3"/>
<path d="M29 31.5V29C29 27.6739 28.4732 26.4022 27.5355 25.4645C26.5979 24.5269 25.3261 24 24 24H14C12.6739 24 11.4021 24.5269 10.4645 25.4645C9.52678 26.4022 9 27.6739 9 29V31.5" stroke="#2BAE68" stroke-width="3" stroke-linecap="round" stroke-linejoin="round"/>
<path d="M19 19C19.9889 19 20.9556 18.7068 21.7779 18.1574C22.6001 17.608 23.241 16.8271 23.6194 15.9134C23.9978 14.9998 24.0968 13.9945 23.9039 13.0246C23.711 12.0547 23.2348 11.1638 22.5355 10.4645C21.8363 9.76525 20.9454 9.28903 19.9755 9.0961C19.0056 8.90318 18.0002 9.00209 17.0866 9.38053C16.173 9.75897 15.3921 10.4 14.8427 11.2223C14.2933 12.0445 14 13.0111 14 14C14 15.3261 14.5268 16.5978 15.4645 17.5354C16.4021 18.4731 17.6739 19 19 19Z" stroke="#2BAE68" stroke-width="3" stroke-linecap="round" stroke-linejoin="round"/>
</svg>
